<?xml version="1.0" standalone="no"?>
<!DOCTYPE svg PUBLIC "-//W3C//DTD SVG 20010904//EN"
 "http://www.w3.org/TR/2001/REC-SVG-20010904/DTD/svg10.dtd">
<svg version="1.0" xmlns="http://www.w3.org/2000/svg"
 width="200.000000pt" height="200.000000pt" viewBox="0 0 200.000000 200.000000"
 preserveAspectRatio="xMidYMid meet">

<g transform="translate(0.000000,200.000000) scale(0.100000,-0.100000)"
fill="#000000" stroke="none">
<path d="M923 1953 c3 -15 8 -35 12 -44 5 -14 -2 -14 -71 -2 -42 7 -83 18 -90
24 -21 18 -18 -14 7 -63 l21 -41 -24 6 c-12 4 -32 7 -44 7 -12 0 -38 11 -58
25 -20 14 -39 25 -43 25 -7 0 2 -121 12 -142 6 -16 1 -18 -33 -18 -23 0 -53 5
-68 10 -15 6 -28 9 -30 7 -9 -8 21 -75 48 -110 17 -21 27 -41 24 -44 -3 -3
-26 -7 -50 -7 -38 -1 -43 -3 -35 -17 5 -9 23 -29 41 -44 25 -21 29 -28 17 -36
-8 -5 -22 -9 -31 -9 -10 0 -18 -4 -18 -9 0 -10 44 -48 76 -67 18 -10 18 -12 1
-38 -17 -26 -17 -26 8 -36 15 -6 31 -10 36 -10 5 0 12 -14 16 -32 6 -32 73
-108 96 -108 7 0 18 -9 24 -19 11 -18 9 -20 -20 -26 -51 -11 -60 -23 -52 -73
6 -41 5 -44 -12 -37 -40 16 -53 16 -108 1 -104 -31 -174 -120 -175 -222 0 -87
56 -199 103 -206 11 -2 22 -8 24 -13 2 -8 -47 -10 -153 -7 l-156 4 8 -23 c4
-13 8 -53 8 -89 l1 -65 33 -3 c17 -2 32 -5 32 -8 0 -3 -20 -40 -44 -82 -30
-52 -49 -99 -57 -144 -7 -38 -10 -70 -8 -73 3 -2 62 8 132 22 l127 26 28 -26
28 -27 120 21 c87 16 175 23 330 26 213 5 305 -1 471 -34 l81 -15 35 26 34 26
119 -24 c66 -13 121 -22 123 -21 2 2 -29 65 -68 141 -39 75 -71 141 -71 145 0
5 23 46 51 90 63 102 67 111 43 109 -10 -1 -80 -2 -154 -1 l-135 1 -27 49
c-34 63 -28 85 31 116 26 13 65 43 88 68 115 125 141 303 66 451 -32 64 -113
148 -176 185 -48 28 -49 29 -29 42 20 13 20 14 -16 45 l-36 31 32 37 c38 43
41 60 10 53 -13 -3 -32 -2 -43 2 -17 7 -20 18 -20 82 -1 41 -6 83 -12 94 -10
17 -12 15 -22 -22 -6 -22 -17 -46 -25 -52 -11 -10 -16 -2 -26 40 -10 39 -24
64 -60 100 -50 53 -75 64 -61 27 4 -13 11 -41 15 -62 l7 -39 -42 37 c-23 20
-68 45 -98 57 -31 11 -71 29 -90 40 l-34 20 6 -28z m123 -58 c87 -42 124 -84
133 -153 5 -38 7 -28 11 58 l5 105 29 -43 c38 -56 47 -133 20 -164 l-19 -21
32 16 c17 9 44 33 60 52 l30 35 -4 -32 c-8 -64 -14 -83 -22 -69 -6 8 -11 9
-15 3 -3 -6 18 -20 49 -33 30 -12 52 -26 49 -31 -4 -5 -13 -7 -21 -4 -8 3 -11
1 -8 -4 3 -6 -1 -10 -9 -10 -9 0 -16 5 -16 10 0 6 -4 10 -10 10 -11 0 23 -62
54 -100 12 -14 4 -10 -16 9 -21 19 -40 32 -43 29 -3 -3 1 -11 10 -18 24 -20
18 -31 -10 -18 -14 6 -34 26 -44 44 -11 18 -30 38 -43 44 l-23 11 21 -18 c25
-21 42 -52 55 -97 l8 -31 -27 31 c-15 17 -37 44 -50 60 -17 22 -19 23 -8 4 30
-52 31 -156 2 -195 -9 -12 -11 -8 -12 22 0 21 -11 63 -24 93 l-24 54 -8 -38
c-5 -21 -17 -51 -28 -66 -11 -15 -20 -33 -20 -38 0 -6 -5 -14 -12 -18 -7 -5
-8 -3 -3 6 5 9 4 11 -4 6 -6 -4 -9 -11 -6 -15 5 -10 -30 -44 -65 -61 -23 -12
-24 -12 -12 3 14 16 62 178 62 207 0 8 -22 -7 -50 -35 -27 -27 -48 -51 -45
-53 2 -3 20 13 40 34 19 21 35 34 35 29 0 -6 -25 -35 -55 -65 -47 -46 -55 -51
-55 -33 0 35 39 130 68 166 23 28 24 30 3 12 -13 -11 -38 -42 -56 -70 -18 -27
-51 -68 -74 -90 -34 -32 -41 -36 -41 -20 0 25 45 123 68 149 26 30 -62 -21
-90 -52 l-23 -25 27 5 26 5 -34 -51 c-18 -28 -37 -66 -40 -84 -10 -50 -24 -19
-24 53 0 75 25 131 76 173 21 18 33 32 27 32 -11 0 -105 -33 -157 -55 -17 -7
-16 -4 5 24 32 44 77 70 133 77 48 7 74 24 35 24 -12 0 -40 19 -65 44 -49 48
-51 48 -28 5 l15 -30 -31 16 c-31 16 -31 16 -20 -4 6 -12 17 -22 25 -22 28 -3
33 -4 40 -11 4 -4 -10 -10 -31 -14 -22 -3 -46 -11 -54 -16 -11 -6 -8 -7 10 -3
23 6 24 5 5 -7 -11 -7 -29 -14 -40 -15 -11 -2 -21 -8 -23 -13 -5 -15 -35 -12
-60 6 -19 13 -62 82 -62 98 0 3 15 3 33 1 17 -2 58 -6 90 -9 l58 -5 -30 28
c-27 25 -33 39 -46 104 -4 21 -6 20 37 2 20 -8 62 -18 94 -24 33 -5 73 -12 89
-16 29 -7 29 -7 -10 22 -23 17 -48 41 -57 55 l-16 25 75 -13 c76 -14 154 -50
172 -82 6 -9 11 -12 11 -6 0 6 -8 18 -18 27 -32 29 -84 107 -71 107 6 0 45
-16 85 -35z m-377 -335 c-17 -33 -26 -40 -50 -40 -16 0 -41 7 -55 17 l-26 16
58 18 c32 10 61 16 65 13 4 -2 10 0 14 6 3 5 8 10 10 10 3 0 -5 -18 -16 -40z
m91 -14 c0 -2 -7 -6 -15 -10 -8 -3 -15 -1 -15 4 0 6 7 10 15 10 8 0 15 -2 15
-4z m-70 -52 c0 -7 -10 -20 -22 -29 -16 -12 -19 -19 -10 -22 14 -5 16 -71 2
-93 -6 -10 -8 0 -5 33 l5 47 -38 0 c-21 0 -46 6 -56 13 -16 12 -14 15 23 39
26 17 43 22 49 16 12 -12 35 -1 27 13 -3 5 1 6 9 3 9 -3 16 -12 16 -20z m655
-42 c-8 -8 -13 0 -20 33 l-7 30 16 -29 c9 -16 14 -31 11 -34z m-330 -70 c-16
-54 -23 -59 -57 -41 -19 10 -18 13 23 55 23 24 44 42 46 40 2 -1 -4 -26 -12
-54z m-95 18 c0 -19 -5 -30 -14 -30 -24 0 -29 20 -10 41 23 25 24 24 24 -11z
m260 -2 c0 -7 -53 -38 -65 -38 -3 0 6 16 21 36 20 26 29 32 35 22 5 -7 9 -16
9 -20z m278 13 c67 -35 120 -89 154 -159 27 -55 34 -80 37 -149 4 -98 -13
-155 -66 -227 -34 -47 -36 -48 -47 -28 l-11 21 -40 -25 c-58 -35 -67 -30 -13
8 50 35 100 102 118 162 7 23 10 67 8 107 -4 55 -12 80 -39 124 -30 50 -109
125 -131 125 -4 0 -8 6 -8 14 0 8 -7 16 -15 20 -20 7 -19 26 0 26 9 0 32 -9
53 -19z m-742 -39 c-11 -10 -15 4 -8 28 l7 25 3 -23 c2 -13 1 -26 -2 -30z
m660 27 c8 -14 -10 -11 -32 6 -18 13 -18 14 4 8 12 -3 25 -9 28 -14z m-731
-30 c0 -8 -11 -16 -24 -17 -15 -2 -21 0 -16 7 3 6 11 9 16 6 5 -3 6 2 2 11 -4
12 -2 15 8 12 8 -3 14 -11 14 -19z m665 -11 c0 -21 -3 -29 -10 -22 -5 5 -7 19
-4 32 9 31 14 27 14 -10z m-120 -3 c0 -10 -10 -15 -27 -15 l-28 1 25 14 c31
18 30 18 30 0z m-457 -15 c3 -11 3 -20 1 -20 -2 0 -8 9 -14 20 -6 11 -7 20 -2
20 6 0 12 -9 15 -20z m519 -12 c-9 -9 -12 -7 -12 12 0 19 3 21 12 12 9 -9 9
-15 0 -24z m175 2 c90 -52 137 -132 137 -235 0 -110 -57 -200 -146 -234 -23
-9 -29 -7 -37 7 -11 21 6 48 34 53 29 6 65 66 65 110 0 45 -33 89 -85 113 -37
18 -46 36 -17 36 13 0 14 -2 4 -9 -9 -6 0 -12 32 -20 67 -16 76 -15 76 15 0
16 -13 39 -35 61 -19 19 -35 44 -35 54 0 15 -7 19 -35 19 -24 0 -35 -5 -35
-14 0 -8 -10 -18 -22 -21 -46 -14 -68 -45 -68 -95 0 -26 3 -50 8 -54 4 -4 8
-12 8 -17 1 -5 2 -13 3 -19 0 -5 6 -10 12 -10 5 0 7 5 3 12 -4 7 -3 8 4 4 25
-15 11 -29 -24 -23 -42 7 -52 -8 -36 -59 7 -25 7 -34 -1 -33 -18 1 -84 27 -72
28 21 2 16 55 -7 72 l-22 17 28 33 c15 19 47 55 71 80 24 25 47 58 51 73 5 23
11 27 31 22 21 -6 23 -4 17 18 -13 54 18 59 93 16z m-736 -3 c-16 -16 -14 -27
3 -21 11 4 13 0 9 -16 -6 -23 21 -60 44 -60 10 0 12 6 8 20 -5 15 -3 18 8 14
10 -4 16 5 21 31 7 37 7 37 28 18 12 -10 18 -13 15 -6 -4 6 -3 14 3 18 5 3 14
-5 20 -20 13 -33 37 -42 54 -20 11 15 16 16 36 5 20 -11 22 -10 17 4 -4 10 -1
16 7 16 8 0 16 -4 18 -9 2 -5 20 -4 41 4 33 11 38 11 33 -1 -3 -8 1 -14 8 -14
7 0 19 -6 26 -14 15 -19 34 -11 48 20 15 32 46 33 37 2 -6 -22 -6 -22 9 -4 9
11 18 18 20 15 7 -7 -30 -135 -46 -157 -23 -34 -139 -122 -159 -122 -37 0
-193 114 -204 150 -4 13 -15 20 -33 20 -41 0 -92 55 -92 100 0 39 7 53 22 44
6 -4 5 -11 -1 -17z m544 -88 c-16 -22 -30 -38 -32 -35 -2 2 7 21 22 41 14 21
25 43 26 49 0 6 3 5 6 -2 3 -7 -7 -31 -22 -53z m165 23 c0 -9 10 -22 22 -27
24 -11 56 -60 46 -70 -4 -4 -19 0 -35 9 -65 35 -76 38 -92 21 -21 -20 -6 -44
41 -67 46 -22 78 -63 78 -100 0 -34 -39 -78 -70 -78 -11 0 -20 -7 -20 -15 0
-9 -9 -15 -21 -15 -15 0 -19 5 -15 15 3 10 -5 20 -24 30 -28 15 -50 42 -50 64
0 19 28 12 54 -14 28 -28 67 -33 86 -10 18 22 8 48 -29 70 -57 34 -91 71 -91
100 0 31 41 75 70 75 11 0 20 7 20 15 0 8 7 15 15 15 8 0 15 -8 15 -18z m-39
-232 c23 -19 23 -19 4 -20 -21 0 -45 17 -45 32 0 14 17 9 41 -12z m-472 -44
c-2 -27 -2 -28 -6 -6 -3 14 -10 31 -15 38 -8 9 -7 11 6 6 10 -4 16 -17 15 -38z
m161 34 c0 -5 -5 -10 -11 -10 -5 0 -7 5 -4 10 3 6 8 10 11 10 2 0 4 -4 4 -10z
m90 6 c0 -2 -7 -7 -16 -10 -8 -3 -12 -2 -9 4 6 10 25 14 25 6z m-578 -51 c-49
-15 -76 -36 -103 -80 -11 -16 -19 -24 -19 -16 0 8 22 36 50 63 40 38 57 48 82
47 32 0 32 -1 -10 -14z m179 -31 c12 -14 11 -16 -5 -13 -11 2 -21 10 -24 17
-5 17 13 15 29 -4z m-40 -10 c11 -14 9 -19 -11 -35 -34 -26 -76 -25 -83 2 -3
11 -3 27 0 35 7 20 77 18 94 -2z m174 -32 c-3 -3 -11 0 -18 7 -9 10 -8 11 6 5
10 -3 15 -9 12 -12z m425 -2 c11 -6 25 -20 31 -32 10 -19 9 -20 -17 -14 -28 7
-54 30 -54 48 0 11 17 10 40 -2z m-243 -99 c8 -18 12 -35 10 -37 -2 -3 -10 9
-17 25 -9 23 -28 37 -85 62 -40 19 -72 37 -69 40 2 4 36 -7 76 -24 58 -26 74
-38 85 -66z m189 72 c-10 -10 -19 5 -10 18 6 11 8 11 12 0 2 -7 1 -15 -2 -18z
m-138 -27 c-19 -17 -25 -31 -22 -47 3 -18 1 -17 -7 5 -10 26 -9 31 12 47 35
27 49 22 17 -5z m-671 -23 c-3 -10 -5 -4 -5 12 0 17 2 24 5 18 2 -7 2 -21 0
-30z m22 -118 c-1 -18 -28 49 -28 70 0 11 6 2 14 -20 8 -22 14 -44 14 -50z
m20 -174 c21 -13 8 -49 -59 -160 -33 -54 -60 -101 -60 -104 0 -3 25 -3 55 0
l55 6 0 -35 0 -34 -110 -20 -110 -20 6 35 c4 20 33 82 66 138 82 143 81 135
14 127 -55 -7 -56 -6 -56 19 0 54 6 57 99 57 47 0 92 -4 100 -9z m1231 5 c0
-3 -22 -37 -50 -77 l-49 -73 41 -76 c22 -41 50 -90 61 -109 l21 -34 -33 6
c-19 4 -39 7 -46 7 -7 0 -29 31 -49 70 -21 38 -41 70 -45 70 -13 0 -21 -27
-21 -75 l0 -42 -32 6 -33 7 -3 157 -3 157 35 0 35 0 3 -62 3 -63 42 68 c41 65
44 67 83 67 22 0 40 -2 40 -4z m-1002 -22 c20 -14 22 -23 22 -114 0 -152 -10
-165 -128 -176 -67 -6 -70 -6 -86 19 -15 22 -16 39 -7 137 12 141 18 150 110
150 44 0 74 -5 89 -16z m551 5 c17 -6 36 -19 41 -29 6 -10 10 -64 10 -119 0
-96 -1 -101 -25 -117 -21 -14 -40 -15 -110 -9 l-85 7 0 133 0 134 63 4 c34 2
65 4 68 5 3 1 20 -3 38 -9z m161 -145 l0 -156 -22 6 c-13 3 -29 6 -35 6 -10 0
-13 35 -13 143 0 79 3 147 7 150 3 4 19 7 35 7 l28 0 0 -156z m-580 36 l0
-109 50 6 50 6 0 -32 c0 -28 -3 -31 -32 -31 -18 0 -57 -3 -85 -6 l-53 -7 0
119 c0 150 4 164 41 164 l29 0 0 -110z m210 -25 l0 -135 -35 0 -35 0 0 135 0
135 35 0 35 0 0 -135z"/>
<path d="M835 1741 c11 -4 49 -11 85 -14 36 -3 56 -2 45 3 -28 10 -155 22
-130 11z"/>
<path d="M1086 1689 c38 -43 37 -46 -19 -43 l-52 3 48 -9 c27 -5 59 -16 72
-24 31 -20 41 -20 21 0 -9 8 -16 21 -16 28 0 13 -33 47 -60 61 -8 5 -6 -2 6
-16z"/>
<path d="M774 1439 c-15 -30 -15 -30 6 -19 11 6 18 15 15 20 -3 5 3 10 12 12
17 3 17 4 1 10 -13 6 -22 -1 -34 -23z"/>
<path d="M1082 1435 c-9 -20 -9 -23 3 -18 8 3 15 14 15 24 0 25 -5 24 -18 -6z"/>
<path d="M603 1543 c9 -2 25 -2 35 0 9 3 1 5 -18 5 -19 0 -27 -2 -17 -5z"/>
<path d="M648 1473 c7 -3 16 -2 19 1 4 3 -2 6 -13 5 -11 0 -14 -3 -6 -6z"/>
<path d="M615 1450 c-16 -7 -17 -9 -3 -9 9 -1 20 4 23 9 7 11 7 11 -20 0z"/>
<path d="M1034 1194 c-1 -13 2 -21 7 -18 11 6 12 31 2 37 -5 3 -9 -6 -9 -19z"/>
<path d="M968 1123 c6 -2 18 -2 25 0 6 3 1 5 -13 5 -14 0 -19 -2 -12 -5z"/>
<path d="M577 383 c-3 -42 -4 -81 -1 -85 6 -10 71 -11 77 0 3 4 8 42 12 85 l7
77 -45 0 -44 0 -6 -77z"/>
<path d="M1160 386 l0 -76 40 0 41 0 -3 73 -3 72 -37 3 -38 3 0 -75z"/>
</g>
</svg>
